:SAMPLES-PER-SECOND 30
:FULLY-SPECIFIED
:DEGREES
65
root  40.8701 39.6191 -4.72348 115.03 -86.9208 -111.274
RightUpLeg  -21.5897 -8.0186 8.27944
RightLeg  19.35 -4.52022 -1.53638
RightFoot  -11.7195 -0.0672124 3.83295
RightToes  3.49245e-010 0 -3.6325e-017
Spine  10.1758 -4.49554 2.18228
Spine1  2.52965 -5.53419 6.05955
HEad  -19.8004 12.1108 -5.12929
LeftShoulder1  8.21238 -12.5165 -44.6551
LeftArm  9.71114 11.0183 -31.2441
LeftForeArm  177.521 -62.9056 -161.471
LeftHand  -0.244104 0.0205437 5.32207
RightShoulder  4.881 9.05895 32.9104
RightArm  -3.81207 -53.8483 32.2346
RightForeArm  131.576 72.3112 143.833
RightHand  0.242776 -7.86483 -12.5971
LeftUpLeg  5.35073 10.0443 2.91626
LeftLeg  34.0295 2.1339 1.85394
LeftFoot  3.41938 1.08532 -8.55135
LeftToes  1.68253e-010 -2.29257e-011 3.59052e-011
66
root  38.9806 38.8442 -4.72753 109.915 -86.1771 -107.256
RightUpLeg  -21.2898 -7.84657 9.98225
RightLeg  24.1699 -5.1507 -2.73247
RightFoot  -12.4451 -0.0898921 -0.630872
RightToes  3.49245e-010 0 -3.6325e-017
Spine  11.1215 -4.2034 5.12095
Spine1  2.83548 -4.53022 4.70337
HEad  -19.4928 10.6294 -5.5254
LeftShoulder1  8.20175 -12.5331 -44.5458
LeftArm  9.63542 9.81997 -31.8833
LeftForeArm  176.584 -64.008 -160.503
LeftHand  -0.244104 0.0205437 5.32207
RightShoulder  4.81666 8.91546 32.8459
RightArm  -7.32985 -51.3272 36.2135
RightForeArm  133.108 72.5872 143.472
RightHand  0.239737 -8.24314 -10.8852
LeftUpLeg  2.32594 6.63205 4.03188
LeftLeg  45.4864 0.978257 1.46905
LeftFoot  1.27675 1.07555 -9.78817
LeftToes  1.68253e-010 -2.29257e-011 3.59052e-011
67
root  37.0848 37.9576 -4.72186 108.048 -85.023 -106.407
RightUpLeg  -21.56 -5.65143 11.3036
RightLeg  32.4839 -6.95733 -5.02039
RightFoot  -14.2638 -0.240236 -5.35665
RightToes  3.49245e-010 0 -3.6325e-017
Spine  12.3873 -3.82718 8.08919
Spine1  2.90616 -3.49575 3.70533
HEad  -20.3189 9.23548 -6.06585
LeftShoulder1  8.12933 -12.0956 -45.4316
LeftArm  8.19068 8.83537 -32.4785
LeftForeArm  177.854 -65.0475 -159.747
LeftHand  -0.244104 0.0205437 5.32207
RightShoulder  5.12732 8.97035 35.1294
RightArm  -5.33418 -45.9535 33.3602
RightForeArm  131.134 71.6351 145.139
RightHand  0.279943 -8.47539 -11.5768
LeftUpLeg  -1.43543 3.91324 5.83359
LeftLeg  56.2983 0.918487 2.07311
LeftFoot  -1.08222 0.880079 -9.68092
LeftToes  1.68253e-010 -2.29257e-011 3.59052e-011
68
root  35.1822 37.1369 -4.69667 107.71 -83.7354 -106.657
RightUpLeg  -21.2993 -4.95488 12.5286
RightLeg  40.0039 -7.36813 -6.84532
RightFoot  -18.914 -0.590645 -7.14717
RightToes  3.49245e-010 0 -3.6325e-017
Spine  13.5173 -3.59175 11.1013
Spine1  2.89246 -2.58241 2.50491
HEad  -22.3063 8.21902 -6.80873
LeftShoulder1  8.32219 -11.6176 -48.0276
LeftArm  4.96424 9.63758 -31.5384
LeftForeArm  178.891 -65.6373 -159.328
LeftHand  -0.244104 0.0205437 5.32207
RightShoulder  5.82031 9.19203 39.7129
RightArm  -0.979534 -36.8521 26.6044
RightForeArm  126.962 70.8089 146.124
RightHand  0.44342 -9.53332 -13.1437
LeftUpLeg  -6.47703 1.76337 7.76449
LeftLeg  65.512 1.85023 5.19998
LeftFoot  -3.12132 0.545275 -7.29488
LeftToes  1.68253e-010 -2.29257e-011 3.59052e-011
69
root  33.2127 36.6342 -4.67357 109.449 -82.8339 -108.18
RightUpLeg  -19.6126 -6.14883 12.9819
RightLeg  43.5114 -6.50849 -6.88958
RightFoot  -24.1866 -0.867476 -6.25997
RightToes  3.49245e-010 0 -3.6325e-017
Spine  13.1809 -3.18387 14.436
Spine1  3.63943 -1.26227 -0.0277809
HEad  -24.1605 6.82832 -7.11531
LeftShoulder1  8.81281 -11.5779 -50.9843
LeftArm  0.920461 13.9677 -29.3442
LeftForeArm  177.443 -65.172 -159.59
LeftHand  -0.244104 0.0205437 5.32207
RightShoulder  6.39419 9.44276 43.0535
RightArm  0.610626 -27.1883 23.8903
RightForeArm  129.583 70.3724 147.276
RightHand  0.618308 -11.4788 -12.5556
LeftUpLeg  -12.7158 0.350464 9.09689
LeftLeg  71.6152 2.43291 9.02343
LeftFoot  -4.92424 0.258713 -4.08092
LeftToes  1.68253e-010 -2.29257e-011 3.59052e-011
70
root  31.0577 36.6446 -4.72718 117.021 -83.1941 -115.036
RightUpLeg  -15.8106 -7.40268 11.5947
RightLeg  42.2509 -5.28313 -5.4446
RightFoot  -27.0805 -0.932612 -5.40585
RightToes  3.49245e-010 0 -3.6325e-017
Spine  11.2991 -1.81378 16.9297
Spine1  5.01538 1.15994 -4.13663
HEad  -24.7091 4.0297 -5.68951
LeftShoulder1  9.16955 -11.8131 -52.2171
LeftArm  -1.63083 21.2694 -27.0769
LeftForeArm  174.439 -63.5736 -160.636
LeftHand  -0.244104 0.0205437 5.32207
RightShoulder  6.42152 9.52315 42.953
RightArm  -1.02336 -21.5329 27.7366
RightForeArm  143.782 68.486 151.939
RightHand  0.546254 -12.7951 -9.23339
LeftUpLeg  -18.6843 -0.208708 8.70475
LeftLeg  73.1577 2.49752 10.2999
LeftFoot  -6.89651 0.131272 -2.38825
LeftToes  1.68253e-010 -2.29257e-011 3.59052e-011
71
root  28.6946 37.2245 -4.90756 136.147 -85.0423 -133.615
RightUpLeg  -9.85025 -7.58983 8.09751
RightLeg  37.2684 -4.48979 -3.93378
RightFoot  -26.8849 -0.838041 -4.82241
RightToes  3.49245e-010 0 -3.6325e-017
Spine  9.4853 0.474661 16.7212
Spine1  5.62731 4.23614 -8.37827
HEad  -23.8943 0.0511999 -2.27819
LeftShoulder1  8.98239 -11.8128 -51.1664
LeftArm  -1.38256 29.0602 -24.732
LeftForeArm  173.194 -61.5611 -162.049
LeftHand  -0.244104 0.0205437 5.32207
RightShoulder  6.13196 9.3634 41.4296
RightArm  -2.58118 -20.092 33.6703
RightForeArm  157.651 64.3773 158.185
RightHand  0.367735 -12.335 -6.98587
LeftUpLeg  -22.7906 -0.438356 6.08719
LeftLeg  69.6448 2.75047 9.08491
LeftFoot  -8.97196 0.117026 -3.20042
LeftToes  1.68253e-010 -2.29257e-011 3.59052e-011
72
root  26.194 38.2249 -5.15039 179.84 -86.962 -176.917
RightUpLeg  -2.86634 -8.02595 3.43887
RightLeg  30.0809 -3.38246 -2.40231
RightFoot  -23.3891 -0.422209 -2.36795
RightToes  3.49245e-010 0 -3.6325e-017
Spine  8.21825 2.63094 13.8097
Spine1  4.84118 6.51702 -11.1942
HEad  -21.9281 -3.71288 1.46319
LeftShoulder1  8.3668 -11.4108 -48.958
LeftArm  0.35053 35.7916 -21.9216
LeftForeArm  175.052 -59.7805 -163.419
LeftHand  -0.244104 0.0205437 5.32207
RightShoulder  5.92745 9.07042 40.9473
RightArm  -0.747094 -19.8586 36.6501
RightForeArm  158.786 60.5239 161.459
RightHand  0.358655 -11.0876 -8.24922
LeftUpLeg  -24.8741 -0.814551 2.16424
LeftLeg  61.5422 3.7997 8.10601
LeftFoot  -10.4173 0.104534 -5.02668
LeftToes  1.68253e-010 -2.29257e-011 3.59052e-011
73
root  23.6321 39.3178 -5.3396 -117.427 -87.0201 121.059
RightUpLeg  3.33263 -10.6404 -1.17874
RightLeg  22.9596 -0.307198 -0.311808
RightFoot  -15.5756 -0.0525763 2.01482
RightToes  3.49245e-010 0 -3.6325e-017
Spine  6.25529 3.94707 10.3506
Spine1  3.91171 7.46581 -12.4712
HEad  -18.7492 -6.38903 3.60069
LeftShoulder1  7.80119 -11.0299 -46.8276
LeftArm  1.24478 41.7825 -19.2141
LeftForeArm  177.529 -58.1657 -164.609
LeftHand  -0.244104 0.0205437 5.32207
RightShoulder  5.81111 8.83374 40.907
RightArm  3.87946 -19.0134 36.7689
RightForeArm  155.22 58.7786 162.299
RightHand  0.293814 -9.6976 -8.83125
LeftUpLeg  -25.6636 -0.81962 -1.61811
LeftLeg  50.226 5.76866 7.8067
LeftFoot  -10.8253 0.089303 -5.40686
LeftToes  1.68253e-010 -2.29257e-011 3.59052e-011
74
root  21.0842 40.2029 -5.43097 -84.1293 -86.1699 88.5283
RightUpLeg  7.4782 -13.8202 -4.50824
RightLeg  19.0235 3.24142 1.37467
RightFoot  -4.80266 -0.331852 5.50396
RightToes  3.49245e-010 0 -3.6325e-017
Spine  3.56133 4.57551 8.42657
Spine1  4.04869 7.80856 -12.9385
HEad  -15.1153 -8.28544 3.73429
LeftShoulder1  7.68293 -11.2367 -45.4302
LeftArm  0.323151 47.193 -17.3875
LeftForeArm  177.749 -56.5871 -165.501
LeftHand  -0.244104 0.0205437 5.32207
RightShoulder  5.70569 8.85818 40.0185
RightArm  8.29593 -17.9661 36.655
RightForeArm  159.389 58.1248 163.068
RightHand  0.094195 -10.0965 -3.96432
LeftUpLeg  -25.4273 0.432514 -4.42529
LeftLeg  37.6741 6.84923 6.07104
LeftFoot  -10.7729 0.0872032 -4.46642
LeftToes  1.68253e-010 -2.29257e-011 3.59052e-011
75
root  18.6328 40.7296 -5.47173 -68.3121 -85.9373 72.6893
RightUpLeg  9.25695 -13.5657 -5.45229
RightLeg  20.5522 3.70575 1.37614
RightFoot  3.33057 -0.798469 6.44946
RightToes  3.49245e-010 0 -3.6325e-017
Spine  1.94512 4.94604 7.88054
Spine1  4.82548 8.08267 -12.9299
HEad  -12.54 -9.7837 2.89306
LeftShoulder1  7.87231 -11.8115 -44.7776
LeftArm  -2.06851 50.8458 -17.1861
LeftForeArm  176.658 -55.4286 -166.013
LeftHand  -0.244104 0.0205437 5.32207
RightShoulder  5.73541 9.19504 39.0736
RightArm  11.2717 -17.1719 36.1148
RightForeArm  168.505 57.4591 164.245
RightHand  -0.203615 -11.2223 2.88504
LeftUpLeg  -24.0072 3.25042 -6.56026
LeftLeg  26.0476 4.81913 3.01382
LeftFoot  -11.3007 0.067172 -4.809
LeftToes  1.68253e-010 -2.29257e-011 3.59052e-011
76
root  16.3021 40.8307 -5.50309 -61.4268 -86.1318 64.8403
RightUpLeg  9.06774 -8.41368 -4.38486
RightLeg  27.6255 0.0159148 -0.279565
RightFoot  5.30788 -0.883236 6.27781
RightToes  3.49245e-010 0 -3.6325e-017
Spine  2.21352 5.13115 7.4789
Spine1  5.3177 8.14963 -12.2774
HEad  -11.5497 -10.5563 2.13333
LeftShoulder1  7.92264 -12.0716 -44.2912
LeftArm  -5.19725 52.0726 -18.989
LeftForeArm  177.227 -54.9537 -166.292
LeftHand  -0.244104 0.0205437 5.32207
RightShoulder  5.92812 9.58567 39.1913
RightArm  13.7276 -16.1109 33.9845
RightForeArm  170.92 57.2099 164.591
RightHand  -0.312381 -11.3649 4.66261
LeftUpLeg  -21.6594 5.95549 -7.93873
LeftLeg  17.0629 2.10548 0.553847
LeftFoot  -12.044 0.0362729 -6.40499
LeftToes  1.68253e-010 -2.29257e-011 3.59052e-011
77
root  14.0339 40.4823 -5.50758 -63.6771 -86.4907 65.7997
RightUpLeg  7.48439 -3.11976 -3.56487
RightLeg  38.4464 -3.00846 -2.81776
RightFoot  4.02123 -0.811152 6.213
RightToes  3.49245e-010 0 -3.6325e-017
Spine  3.3499 5.03325 6.65153
Spine1  5.3505 7.806 -11.0601
HEad  -11.5185 -10.1076 1.61836
LeftShoulder1  7.7136 -11.8992 -43.5683
LeftArm  -8.23551 51.801 -22.0506
LeftForeArm  179.659 -54.7005 -166.603
LeftHand  -0.244104 0.0205437 5.32207
RightShoulder  6.10479 9.8026 39.7551
RightArm  16.0884 -14.7265 31.5165
RightForeArm  165.405 57.9275 163.707
RightHand  -0.166063 -11.097 2.03287
LeftUpLeg  -19.3431 5.08457 -7.77705
LeftLeg  12.4371 4.45047 -0.885648
LeftFoot  -11.1709 0.0667882 -5.51402
LeftToes  1.68253e-010 -2.29257e-011 3.59052e-011
78
root  11.7948 39.8019 -5.46352 -74.1474 -86.4137 74.8521
RightUpLeg  4.81955 0.600471 -4.49388
RightLeg  50.3908 -3.92968 -5.42004
RightFoot  3.21802 -0.718366 5.79692
RightToes  3.49245e-010 0 -3.6325e-017
Spine  4.95431 4.52964 5.18301
Spine1  5.09787 7.02446 -9.60674
HEad  -12.3911 -8.62676 1.10917
LeftShoulder1  7.4618 -11.5482 -43.1044
LeftArm  -10.3845 50.3695 -24.7
LeftForeArm  -178.876 -54.3985 -166.862
LeftHand  -0.244104 0.0205437 5.32207
RightShoulder  6.14757 9.8622 39.8641
RightArm  17.308 -13.8416 30.6004
RightForeArm  160.712 59.4943 162.319
RightHand  -0.0857602 -10.924 0.523285
LeftUpLeg  -18.2692 6.09537 -9.28469
LeftLeg  14.1604 5.69422 -0.13396
LeftFoot  -8.63109 0.0525342 -0.441769
LeftToes  1.68253e-010 -2.29257e-011 3.59052e-011
